<svg xmlns="http://www.w3.org/2000/svg" viewBox="0 0 512 512">
  <defs>
    <linearGradient id="bg" x1="0%" y1="0%" x2="100%" y2="100%">
      <stop offset="0%" stop-color="#2563EB" />
      <stop offset="100%" stop-color="#0F9FB7" />
    </linearGradient>
    <linearGradient id="panel" x1="0%" y1="0%" x2="100%" y2="100%">
      <stop offset="0%" stop-color="#ffffff" stop-opacity="0.98" />
      <stop offset="100%" stop-color="#dff2ff" stop-opacity="0.96" />
    </linearGradient>
  </defs>
  <rect width="512" height="512" rx="128" fill="url(#bg)" />
  <circle cx="408" cy="118" r="42" fill="#7dd3fc" fill-opacity="0.34" />
  <circle cx="116" cy="390" r="58" fill="#bbf7d0" fill-opacity="0.22" />
  <rect x="96" y="104" width="320" height="304" rx="56" fill="url(#panel)" />
  <rect x="132" y="148" width="120" height="112" rx="26" fill="#2563EB" fill-opacity="0.14" />
  <path d="M170 170h44c28 0 46 18 46 45s-18 45-46 45h-44z" fill="#2563EB" />
  <path d="M226 170h28v90h-28z" fill="#ffffff" fill-opacity="0.92" />
  <rect x="286" y="164" width="88" height="18" rx="9" fill="#2563EB" fill-opacity="0.82" />
  <rect x="286" y="198" width="74" height="14" rx="7" fill="#0F9FB7" fill-opacity="0.6" />
  <rect x="138" y="300" width="236" height="22" rx="11" fill="#2563EB" fill-opacity="0.24" />
  <rect x="138" y="342" width="196" height="18" rx="9" fill="#2563EB" fill-opacity="0.16" />
  <rect x="138" y="378" width="162" height="14" rx="7" fill="#0F9FB7" fill-opacity="0.12" />
</svg>
