<svg xmlns="http://www.w3.org/2000/svg" viewBox="0 0 512 512">
  <defs>
    <linearGradient id="bg" x1="0%" y1="0%" x2="100%" y2="100%">
      <stop offset="0%" stop-color="#1d4ed8" />
      <stop offset="100%" stop-color="#0891b2" />
    </linearGradient>
    <linearGradient id="card" x1="0%" y1="0%" x2="100%" y2="100%">
      <stop offset="0%" stop-color="#ffffff" stop-opacity="0.98" />
      <stop offset="100%" stop-color="#e0f2fe" stop-opacity="0.96" />
    </linearGradient>
  </defs>
  <rect width="512" height="512" fill="url(#bg)" />
  <rect x="112" y="112" width="288" height="288" rx="64" fill="url(#card)" />
  <rect x="150" y="152" width="100" height="96" rx="24" fill="#2563EB" fill-opacity="0.14" />
  <path d="M182 168h34c24 0 40 15 40 38s-16 38-40 38h-34z" fill="#2563EB" />
  <path d="M226 168h24v76h-24z" fill="#ffffff" fill-opacity="0.94" />
  <rect x="280" y="168" width="84" height="18" rx="9" fill="#2563EB" fill-opacity="0.82" />
  <rect x="280" y="200" width="68" height="14" rx="7" fill="#0891b2" fill-opacity="0.58" />
  <rect x="150" y="286" width="212" height="22" rx="11" fill="#2563EB" fill-opacity="0.22" />
  <rect x="150" y="326" width="184" height="18" rx="9" fill="#2563EB" fill-opacity="0.16" />
  <rect x="150" y="360" width="132" height="14" rx="7" fill="#0891b2" fill-opacity="0.12" />
</svg>
