<svg xmlns="http://www.w3.org/2000/svg" viewBox="0 0 512 512" role="img" aria-label="xyndrome">
  <defs>
    <linearGradient id="x" x1="128" y1="388" x2="388" y2="128" gradientUnits="userSpaceOnUse">
      <stop offset="0" stop-color="#6d28d9" />
      <stop offset="0.52" stop-color="#2563eb" />
      <stop offset="1" stop-color="#22d3ee" />
    </linearGradient>
    <filter id="soft-shadow" x="-20%" y="-20%" width="140%" height="140%">
      <feDropShadow dx="0" dy="16" stdDeviation="18" flood-color="#020617" flood-opacity="0.36" />
    </filter>
  </defs>
  <rect width="512" height="512" rx="118" fill="#05070d" />
  <path
    d="M118 136h96l56 78 58-78h98L320 256l108 120h-98l-60-82-62 82h-98l110-122L118 136Z"
    fill="url(#x)"
    filter="url(#soft-shadow)"
  />
  <path
    d="M114 124c-26 25-28 72-4 111 29 48 90 61 134 29M114 124l-36 6M114 124l-2-37M76 132c-24 27-29 80-5 126 28 53 86 77 144 53l160 94"
    fill="none"
    stroke="#ffffff"
    stroke-width="24"
    stroke-linecap="round"
    stroke-linejoin="round"
  />
  <circle cx="78" cy="132" r="22" fill="#ffffff" />
  <circle cx="112" cy="88" r="22" fill="#ffffff" />
  <circle cx="395" cy="416" r="42" fill="none" stroke="#ffffff" stroke-width="20" />
  <circle cx="395" cy="416" r="18" fill="#ffffff" />
</svg>
