<svg xmlns="http://www.w3.org/2000/svg" viewBox="0 0 512 512" role="img" aria-label="xyndrome">
  <defs>
    <linearGradient id="x" x1="144" y1="374" x2="374" y2="144" gradientUnits="userSpaceOnUse">
      <stop offset="0" stop-color="#6d28d9" />
      <stop offset="0.52" stop-color="#2563eb" />
      <stop offset="1" stop-color="#22d3ee" />
    </linearGradient>
  </defs>
  <rect width="512" height="512" fill="#05070d" />
  <path
    d="M142 156h82l46 66 48-66h82l-88 100 92 100h-84l-50-68-52 68h-84l94-102-86-98Z"
    fill="url(#x)"
  />
  <path
    d="M142 146c-20 23-20 61-1 93 24 39 72 50 108 25M142 146l-28 4M142 146l-2-30M112 151c-21 24-24 67-4 104 23 43 71 63 118 44l136 80"
    fill="none"
    stroke="#ffffff"
    stroke-width="22"
    stroke-linecap="round"
    stroke-linejoin="round"
  />
  <circle cx="112" cy="151" r="20" fill="#ffffff" />
  <circle cx="140" cy="116" r="20" fill="#ffffff" />
  <circle cx="384" cy="392" r="38" fill="none" stroke="#ffffff" stroke-width="18" />
  <circle cx="384" cy="392" r="16" fill="#ffffff" />
</svg>
