<svg xmlns="http://www.w3.org/2000/svg" width="2520" height="1380" viewBox="0 0 2520 1380">
  <defs>
    <linearGradient id="blueViolet" x1="0" y1="0" x2="1" y2="1">
      <stop offset="0" stop-color="#3d5afe"/>
      <stop offset="1" stop-color="#8b5cf6"/>
    </linearGradient>
    <linearGradient id="softHero" x1="0" y1="0" x2="1" y2="1">
      <stop offset="0" stop-color="#e5e9ff"/>
      <stop offset="1" stop-color="#f0e7ff"/>
    </linearGradient>
    <filter id="softShadow" x="-20%" y="-20%" width="140%" height="140%">
      <feDropShadow dx="0" dy="16" stdDeviation="22" flood-color="#0f1430" flood-opacity=".13"/>
    </filter>
    <filter id="miniShadow" x="-30%" y="-30%" width="160%" height="160%">
      <feDropShadow dx="0" dy="10" stdDeviation="10" flood-color="#0f1430" flood-opacity=".12"/>
    </filter>
    <pattern id="dotGrid" width="32" height="32" patternUnits="userSpaceOnUse">
      <circle cx="2" cy="2" r="1.4" fill="#c9d2ed" opacity=".6"/>
    </pattern>
    <symbol id="iconBook" viewBox="0 0 24 24">
      <path d="M5 4.5h6.2A2.8 2.8 0 0 1 14 7.3v12H7.4A2.4 2.4 0 0 1 5 16.9V4.5Z" fill="none" stroke="currentColor" stroke-width="1.8" stroke-linejoin="round"/>
      <path d="M14 7.3a2.8 2.8 0 0 1 2.8-2.8H19v14.8h-5M8.2 9.8h3" fill="none" stroke="currentColor" stroke-width="1.8" stroke-linecap="round"/>
    </symbol>
    <symbol id="iconPulse" viewBox="0 0 24 24">
      <path d="M3 12h4l2.2-5.2 4 10.4L16 12h5" fill="none" stroke="currentColor" stroke-width="2" stroke-linecap="round" stroke-linejoin="round"/>
    </symbol>
    <symbol id="iconBrain" viewBox="0 0 24 24">
      <path d="M9 20c-3.3 0-6-2.7-6-6 0-3.1 2.2-5.7 5.2-6.1C8.7 5.6 10.3 4 12 4c3.6 0 8 3 8 7.4 1.8.9 1.8 3.1.5 4.4C20.4 18.6 17.2 20 13 20H9Z" fill="none" stroke="currentColor" stroke-width="1.8" stroke-linejoin="round"/>
      <path d="M9 8.2c1.7.3 2.5 1.4 2.5 3M15.4 8.3c-1.6.4-2.4 1.5-2.4 3.2M10.2 15.7c1.4.8 2.9.8 4.4 0" fill="none" stroke="currentColor" stroke-width="1.6" stroke-linecap="round"/>
    </symbol>
    <symbol id="iconStetho" viewBox="0 0 24 24">
      <path d="M6 4v5a4 4 0 0 0 8 0V4M4.8 4h2.4M12.8 4h2.4M10 13v1.5a4.5 4.5 0 0 0 9 0V13" fill="none" stroke="currentColor" stroke-width="1.8" stroke-linecap="round"/>
      <circle cx="19" cy="11.8" r="2" fill="none" stroke="currentColor" stroke-width="1.8"/>
    </symbol>
    <symbol id="iconLayers" viewBox="0 0 24 24">
      <path d="M12 3.5 21 8.5 12 13.5 3 8.5 12 3.5Z" fill="none" stroke="currentColor" stroke-width="1.8" stroke-linejoin="round"/>
      <path d="M4 13l8 4.5L20 13M4 17l8 4.5L20 17" fill="none" stroke="currentColor" stroke-width="1.8" stroke-linecap="round"/>
    </symbol>
    <style>
      text { font-family: "Plus Jakarta Sans", Inter, Arial, sans-serif; letter-spacing: 0; }
      .canvas { fill: #eff1fb; }
      .surface { fill: #ffffff; stroke: #e5e7f0; stroke-width: 1.4; filter: url(#softShadow); }
      .surface-soft { fill: #f5f6fc; stroke: #eef0f6; stroke-width: 1.2; }
      .ink { fill: #0e1538; }
      .muted { fill: #5c6582; }
      .faint { fill: #a8aecb; }
      .primary { fill: #3d5afe; }
      .chip { fill: #e5e9ff; }
      .chipText { fill: #3d5afe; font-weight: 800; font-size: 18px; }
      .kicker { fill: #a8aecb; font-size: 18px; font-weight: 850; text-transform: uppercase; }
      .h1 { fill: #0e1538; font-size: 42px; font-weight: 900; }
      .h2 { fill: #0e1538; font-size: 28px; font-weight: 900; }
      .body { fill: #5c6582; font-size: 18px; font-weight: 650; }
      .small { fill: #5c6582; font-size: 15px; font-weight: 700; }
      .tiny { fill: #a8aecb; font-size: 13px; font-weight: 850; }
      .nav { fill: #5c6582; font-size: 18px; font-weight: 800; }
      .white { fill: #ffffff; }
      .iconLine { color: #3d5afe; }
      .iconMuted { color: #8b5cf6; }
      .iconAmber { color: #f08a2c; }
    </style>
  </defs>

  <rect width="2520" height="1380" fill="#dfe4f5"/>
  <rect width="2520" height="1380" fill="url(#dotGrid)" opacity=".42"/>

  <g id="desktop-1440">
    <text x="72" y="58" class="h2">Desktop Mode - 1440 x 1024</text>
    <rect x="72" y="84" width="1440" height="1024" rx="34" class="canvas"/>
    <circle cx="1432" cy="174" r="110" fill="#e5e9ff" opacity=".62"/>
    <circle cx="406" cy="1036" r="96" fill="#fff1de" opacity=".7"/>

    <rect x="96" y="108" width="250" height="976" rx="28" fill="#ffffff" stroke="#e5e7f0"/>
    <rect x="124" y="142" width="50" height="50" rx="16" fill="url(#blueViolet)"/>
    <path d="M149 154v26M136 167h26" stroke="#fff" stroke-width="5" stroke-linecap="round"/>
    <text x="190" y="164" class="tiny">xyndrome</text>
    <text x="190" y="188" class="h2" style="font-size:24px">Study Hub</text>
    <rect x="124" y="246" width="174" height="54" rx="18" fill="#e5e9ff"/>
    <circle cx="151" cy="273" r="10" class="primary"/>
    <text x="174" y="280" class="nav" fill="#3d5afe">Dashboard</text>
    <circle cx="151" cy="342" r="10" fill="#a8aecb"/>
    <text x="174" y="349" class="nav">Q-Bank</text>
    <circle cx="151" cy="411" r="10" fill="#a8aecb"/>
    <text x="174" y="418" class="nav">Courses</text>
    <circle cx="151" cy="480" r="10" fill="#a8aecb"/>
    <text x="174" y="487" class="nav">Results</text>
    <rect x="124" y="552" width="170" height="170" rx="24" fill="#f5f6fc" stroke="#eef0f6"/>
    <use href="#iconStetho" x="154" y="588" width="58" height="58" class="iconLine"/>
    <text x="146" y="682" class="tiny">Focus mode</text>
    <text x="146" y="708" class="small" style="font-weight:900">Clinical Q-Bank</text>
    <rect x="124" y="958" width="170" height="76" rx="22" fill="#f5f6fc" stroke="#eef0f6"/>
    <text x="146" y="990" class="tiny">Current streak</text>
    <text x="146" y="1020" class="h2" style="font-size:24px">6 days</text>

    <text x="392" y="162" class="kicker">Today / Sun, May 17</text>
    <text x="392" y="208" class="h1">Hi, Laheez</text>
    <rect x="1280" y="132" width="56" height="56" rx="18" fill="#ffffff" stroke="#e5e7f0"/>
    <rect x="1352" y="132" width="56" height="56" rx="18" fill="url(#blueViolet)"/>
    <text x="1374" y="168" class="white" style="font-size:18px;font-weight:900">L</text>

    <rect x="392" y="246" width="662" height="262" rx="30" fill="url(#softHero)" stroke="#e5e7f0" filter="url(#softShadow)"/>
    <path d="M780 332h42l18-42 31 84 24-42h84" fill="none" stroke="#3d5afe" stroke-width="5" stroke-linecap="round" stroke-linejoin="round" opacity=".26"/>
    <circle cx="917" cy="342" r="72" fill="#ffffff" opacity=".74"/>
    <rect x="862" y="386" width="138" height="70" rx="22" fill="#ffffff" filter="url(#miniShadow)"/>
    <use href="#iconBook" x="884" y="405" width="34" height="34" class="iconMuted"/>
    <text x="928" y="420" class="tiny">Next set</text>
    <text x="928" y="443" class="small" style="font-weight:900">8 questions</text>
    <rect x="890" y="284" width="84" height="84" rx="28" fill="url(#blueViolet)" opacity=".95"/>
    <use href="#iconStetho" x="910" y="304" width="44" height="44" style="color:#ffffff"/>
    <text x="430" y="300" class="kicker" fill="#3d5afe">Continue where you left off</text>
    <text x="430" y="362" class="h1" style="font-size:50px">Surgery practice</text>
    <text x="430" y="404" class="body">Next move: finish Hernia red flags and review missed answers.</text>
    <rect x="430" y="440" width="190" height="50" rx="17" fill="url(#blueViolet)"/>
    <text x="463" y="472" class="white" style="font-size:16px;font-weight:900">Resume practice</text>
    <rect x="638" y="440" width="128" height="50" rx="17" fill="#ffffff" stroke="#e5e7f0"/>
    <text x="674" y="472" class="primary" style="font-size:16px;font-weight:900">Results</text>

    <rect x="1082" y="246" width="330" height="262" rx="24" class="surface"/>
    <use href="#iconPulse" x="1302" y="278" width="54" height="54" class="iconAmber" opacity=".72"/>
    <text x="1110" y="294" class="kicker" fill="#f08a2c">Daily streak</text>
    <text x="1110" y="336" class="h2">6 active days</text>
    <g transform="translate(1110 372)">
      <rect width="34" height="28" rx="7" fill="#f08a2c"/>
      <rect x="44" width="34" height="28" rx="7" fill="#f08a2c" opacity=".7"/>
      <rect x="88" width="34" height="28" rx="7" fill="#f08a2c" opacity=".42"/>
      <rect x="132" width="34" height="28" rx="7" fill="none" stroke="#f5d9a8" stroke-dasharray="4 4"/>
      <rect x="176" width="34" height="28" rx="7" fill="#f08a2c"/>
      <rect x="220" width="34" height="28" rx="7" fill="#f08a2c" opacity=".7"/>
    </g>

    <rect x="392" y="542" width="320" height="138" rx="24" class="surface"/>
    <use href="#iconBrain" x="624" y="572" width="52" height="52" class="iconLine" opacity=".22"/>
    <text x="422" y="586" class="tiny">Exam readiness</text>
    <text x="422" y="632" class="h1" style="font-size:44px">76%</text>
    <rect x="422" y="650" width="240" height="10" rx="5" fill="#e5e9ff"/>
    <rect x="422" y="650" width="182" height="10" rx="5" fill="url(#blueViolet)"/>
    <rect x="736" y="542" width="320" height="138" rx="24" class="surface"/>
    <use href="#iconLayers" x="974" y="574" width="48" height="48" class="iconMuted" opacity=".24"/>
    <text x="766" y="586" class="tiny">Open sets</text>
    <text x="766" y="632" class="h1" style="font-size:44px">8</text>
    <text x="820" y="632" class="body">practice sets ready</text>
    <rect x="1082" y="542" width="330" height="138" rx="24" class="surface"/>
    <use href="#iconBook" x="1334" y="574" width="48" height="48" class="iconLine" opacity=".2"/>
    <text x="1112" y="586" class="tiny">Reviews</text>
    <text x="1112" y="632" class="h1" style="font-size:44px">12</text>
    <text x="1176" y="632" class="body">answers to revisit</text>

    <rect x="392" y="722" width="488" height="286" rx="24" class="surface"/>
    <path d="M460 866v95" stroke="#3d5afe" stroke-width="3" stroke-linecap="round" opacity=".2"/>
    <text x="424" y="770" class="h2">Q-Bank map</text>
    <text x="424" y="806" class="body">Course, subject, topic, then practice set.</text>
    <rect x="424" y="844" width="412" height="62" rx="18" class="surface-soft"/>
    <use href="#iconLayers" x="448" y="861" width="26" height="26" class="iconLine"/>
    <text x="488" y="881" class="h2" style="font-size:20px">Surgery</text>
    <text x="752" y="881" class="primary" style="font-size:18px;font-weight:900">67%</text>
    <rect x="424" y="922" width="412" height="62" rx="18" class="surface-soft"/>
    <use href="#iconBrain" x="448" y="939" width="26" height="26" class="iconMuted"/>
    <text x="488" y="959" class="h2" style="font-size:20px">Medicine</text>
    <text x="752" y="959" class="primary" style="font-size:18px;font-weight:900">42%</text>

    <rect x="912" y="722" width="500" height="286" rx="24" class="surface"/>
    <path d="M1302 764c44 38 48 94 10 136s-96 42-136 2" fill="none" stroke="#e5e9ff" stroke-width="18" stroke-linecap="round"/>
    <path d="M1302 764c36 31 44 75 23 113" fill="none" stroke="#3d5afe" stroke-width="18" stroke-linecap="round"/>
    <text x="944" y="770" class="h2">Today&apos;s plan</text>
    <rect x="944" y="820" width="420" height="64" rx="18" class="surface-soft"/>
    <text x="972" y="858" class="h2" style="font-size:19px">Finish Hernia practice</text>
    <text x="1270" y="858" class="small">12m</text>
    <rect x="944" y="900" width="420" height="64" rx="18" class="surface-soft"/>
    <text x="972" y="938" class="h2" style="font-size:19px">Review missed answers</text>
    <text x="1270" y="938" class="small">22m</text>
  </g>

  <g id="ipad-834">
    <text x="1630" y="58" class="h2">Tablet / iPad Mode - 834 x 1194</text>
    <rect x="1630" y="84" width="834" height="1194" rx="42" class="canvas"/>
    <circle cx="2388" cy="246" r="92" fill="#e5e9ff" opacity=".72"/>
    <circle cx="1692" cy="1172" r="76" fill="#fff1de" opacity=".74"/>
    <rect x="1670" y="130" width="54" height="54" rx="18" fill="#ffffff" stroke="#e5e7f0"/>
    <use href="#iconBook" x="1685" y="145" width="24" height="24" class="iconLine"/>
    <text x="1750" y="152" class="tiny">Q-Bank</text>
    <text x="1750" y="184" class="h1" style="font-size:38px">Practice Map</text>
    <rect x="2310" y="130" width="54" height="54" rx="18" fill="url(#blueViolet)"/>
    <text x="2332" y="166" class="white" style="font-size:18px;font-weight:900">L</text>

    <rect x="1670" y="230" width="754" height="194" rx="28" fill="url(#softHero)" stroke="#e5e7f0" filter="url(#softShadow)"/>
    <path d="M2174 326h36l15-34 26 68 22-34h70" fill="none" stroke="#3d5afe" stroke-width="4.5" stroke-linecap="round" stroke-linejoin="round" opacity=".28"/>
    <rect x="2218" y="270" width="92" height="92" rx="30" fill="#ffffff" opacity=".82"/>
    <use href="#iconStetho" x="2241" y="293" width="46" height="46" class="iconLine"/>
    <rect x="2168" y="352" width="152" height="50" rx="18" fill="#ffffff" filter="url(#miniShadow)"/>
    <use href="#iconPulse" x="2188" y="365" width="24" height="24" class="iconAmber"/>
    <text x="2224" y="383" class="small" style="font-weight:900">67% ready</text>
    <text x="1706" y="286" class="kicker" fill="#3d5afe">Practice sets</text>
    <text x="1706" y="344" class="h1">Choose a Course</text>
    <text x="1706" y="384" class="body">Same course-first flow as the student app Q-Bank.</text>

    <rect x="1670" y="462" width="754" height="146" rx="24" class="surface"/>
    <rect x="1706" y="500" width="48" height="48" rx="15" fill="#e5e9ff"/>
    <use href="#iconLayers" x="1718" y="512" width="24" height="24" class="iconLine"/>
    <text x="1774" y="530" class="h2" style="font-size:24px">Surgery</text>
    <text x="1774" y="560" class="small">Hernia, trauma, GI cases</text>
    <text x="2320" y="535" class="primary" style="font-size:22px;font-weight:900">67%</text>
    <rect x="1774" y="580" width="520" height="10" rx="5" fill="#e5e9ff"/>
    <rect x="1774" y="580" width="348" height="10" rx="5" fill="url(#blueViolet)"/>

    <rect x="1670" y="636" width="754" height="98" rx="22" class="surface"/>
    <path d="M1844 689h46M2018 689h30" stroke="#3d5afe" stroke-width="3" stroke-linecap="round" opacity=".22"/>
    <rect x="1708" y="668" width="152" height="42" rx="21" class="chip"/>
    <text x="1742" y="695" class="chipText">Subject</text>
    <rect x="1890" y="668" width="128" height="42" rx="21" class="chip"/>
    <text x="1928" y="695" class="chipText">Topic</text>
    <rect x="2048" y="668" width="198" height="42" rx="21" class="chip"/>
    <text x="2082" y="695" class="chipText">Practice sets</text>

    <rect x="1670" y="770" width="754" height="150" rx="24" class="surface"/>
    <rect x="1706" y="812" width="52" height="52" rx="18" fill="#e5e9ff"/>
    <use href="#iconStetho" x="1720" y="826" width="24" height="24" class="iconLine"/>
    <text x="1780" y="816" class="tiny" fill="#3d5afe">SUBJECT 01</text>
    <text x="1780" y="858" class="h2">General Surgery</text>
    <text x="1780" y="894" class="body">3 topics / 6 practice sets / 2 done</text>
    <text x="2316" y="860" class="primary" style="font-size:24px;font-weight:900">33%</text>

    <rect x="1700" y="948" width="694" height="124" rx="20" class="surface-soft"/>
    <rect x="1734" y="982" width="44" height="44" rx="15" fill="#f0e7ff"/>
    <use href="#iconBrain" x="1744" y="992" width="24" height="24" class="iconMuted"/>
    <text x="1796" y="990" class="tiny" fill="#3d5afe">TOPIC 1.1</text>
    <text x="1796" y="1028" class="h2" style="font-size:24px">Hernia red flags</text>
    <text x="1796" y="1060" class="small">2/3 sets completed</text>
    <rect x="1700" y="1090" width="694" height="72" rx="18" fill="#ffffff" stroke="#eef0f6"/>
    <use href="#iconBook" x="1734" y="1114" width="26" height="26" class="iconLine"/>
    <text x="1776" y="1134" class="h2" style="font-size:20px">02. Incarceration signs</text>
    <rect x="2278" y="1112" width="76" height="32" rx="16" fill="#3d5afe"/>
    <text x="2300" y="1134" class="white" style="font-size:13px;font-weight:900">Start</text>

    <rect x="1770" y="1216" width="554" height="46" rx="23" fill="#ffffff" stroke="#e5e7f0"/>
    <text x="1832" y="1246" class="nav">Home</text>
    <text x="1990" y="1246" class="nav" fill="#3d5afe">Practice</text>
    <text x="2182" y="1246" class="nav">Review</text>
  </g>
</svg>
